<svg xmlns="http://www.w3.org/2000/svg" viewBox="0 0 51.81 35.02"><title>Asset 1</title><g id="Layer_2" data-name="Layer 2"><g id="Layer_1-2" data-name="Layer 1"><path d="M48.78,0H3A3,3,0,0,0,0,3V13.15a7.11,7.11,0,0,0,6.45,7.06,4,4,0,0,0,3.27,1.67H42.1a4,4,0,0,0,3.27-1.67,7.11,7.11,0,0,0,6.44-7.06V3a3,3,0,0,0-3-3Zm-38,2H41.09V6.07H10.73ZM44.12,17.83a1.94,1.94,0,0,1-.13.71,1.38,1.38,0,0,1-.1.22h0a2,2,0,0,1-1.79,1.09H9.72a2,2,0,0,1-1.8-1.09,2,2,0,0,1-.23-.93h7.09a1,1,0,0,0,0-2H7.69v-2H44.12Zm5.67-4.68A5.08,5.08,0,0,1,46.14,18s0,0,0-.06V12.77a1,1,0,0,0-1-1H6.68a1,1,0,0,0-1,1V18A5.08,5.08,0,0,1,2,13.15V3A1,1,0,0,1,3,2H8.7V7.08a1,1,0,0,0,1,1H42.1a1,1,0,0,0,1-1V2h5.67a1,1,0,0,1,1,1Z"/><path d="M25.91,34a1,1,0,0,1-1-1V24.9a1,1,0,1,1,2,0V33a1,1,0,0,1-1,1Z"/><path d="M18.83,17.83a1,1,0,1,1,0-2h0a1,1,0,0,1,0,2Z"/><path d="M10.73,35a1,1,0,0,1,0-2,8.1,8.1,0,0,0,8.09-8.09,1,1,0,1,1,2,0A10.13,10.13,0,0,1,10.73,35Z"/><path d="M41.09,35A10.13,10.13,0,0,1,31,24.9a1,1,0,1,1,2,0A8.1,8.1,0,0,0,41.09,33a1,1,0,0,1,0,2Z"/></g></g></svg>