<svg xmlns="http://www.w3.org/2000/svg" viewBox="0 0 49.18 35.42"><defs><style>.cls-1{fill:none;}.cls-2{fill:#fff;}</style></defs><title>Asset 2</title><g id="Layer_2" data-name="Layer 2"><g id="Layer_1-2" data-name="Layer 1"><path class="cls-1" d="M3.93,32.81h0v0Z"/><path class="cls-1" d="M43.23,24.62h0Z"/><path class="cls-1" d="M10.86,8.88V22.57h2.86V20.88h0s0,0,0-.05a1,1,0,0,1,1-1h0a1,1,0,0,1,1,1s0,0,0,.05h0v1.7h2.89V8.88H15.76v4.81h0a1,1,0,0,1-2,0h0V8.88Zm3.88,6.81h0a1,1,0,1,1-1,1A1,1,0,0,1,14.74,15.69Z"/><path class="cls-1" d="M2,3.43A3.33,3.33,0,0,1,2,2.8a1,1,0,0,1,.34-.6A1,1,0,0,0,2,2.8a3.33,3.33,0,0,0,0,.63q0,14.69,0,29.35a1.34,1.34,0,0,1,0,.2,1.34,1.34,0,0,0,0-.2Q2,18.11,2,3.43Z"/><path class="cls-1" d="M23.55,22.57V8.88h0V22.57Z"/><path class="cls-1" d="M35.43,8.89V22.58h0V8.89Z"/><path class="cls-1" d="M3.29,2.05A1.14,1.14,0,0,0,3,2a.93.93,0,0,0-.33,0A.93.93,0,0,1,3,2,1.14,1.14,0,0,1,3.29,2.05Z"/><path class="cls-1" d="M3.29,2.05a.85.85,0,0,1,.28.16A.85.85,0,0,0,3.29,2.05Z"/><path class="cls-1" d="M3.9,2.81v0a1,1,0,0,0-.3-.53,1,1,0,0,1,.3.53Z"/><path class="cls-1" d="M45.27,3a1.29,1.29,0,0,1,.09-.45A1.29,1.29,0,0,0,45.27,3Z"/><path class="cls-1" d="M45.67,2.26a.8.8,0,0,0-.2.15.46.46,0,0,0-.11.16.46.46,0,0,1,.11-.16A.8.8,0,0,1,45.67,2.26Z"/><path class="cls-1" d="M45.27,3a1.7,1.7,0,0,0,0,.22q0,14.81,0,29.61,0-14.8,0-29.61A1.7,1.7,0,0,1,45.27,3Z"/><path class="cls-1" d="M43.24,5H5.94V6.82h0V5Z"/><path class="cls-1" d="M46.42,2a.75.75,0,0,1,.52.24A.75.75,0,0,0,46.42,2Z"/><path class="cls-1" d="M47.19,3.33c0-.16,0-.32,0-.48a1,1,0,0,0-.08-.32,1,1,0,0,1,.08.32C47.19,3,47.19,3.17,47.19,3.33Z"/><path d="M49.18,3.4a5.81,5.81,0,0,0,0-.59,3,3,0,0,0-2-2.66,2.82,2.82,0,0,0-3.25,1,9.3,9.3,0,0,0-.78,1.71H5.93a1.24,1.24,0,0,1-.06-.18A2.92,2.92,0,0,0,2.84,0,2.92,2.92,0,0,0,0,3V34.25c0,.79.38,1.16,1.18,1.17H4.69c.83,0,1.19-.37,1.2-1.2,0-1,0-2.09,0-3.14,0-.18,0-.37,0-.57H43.26c0,1.27,0,2.47,0,3.67,0,.85.39,1.23,1.23,1.24h3.19c1.22,0,1.5-.29,1.5-1.5ZM3.93,32.81v.63c-.6,0-1.14,0-1.68,0-.08,0-.17-.09-.23-.19A.41.41,0,0,1,2,33.15a.32.32,0,0,1,0-.17,1.34,1.34,0,0,0,0-.2Q2,18.11,2,3.43A3.33,3.33,0,0,1,2,2.8a1,1,0,0,1,.34-.6A1,1,0,0,1,2.63,2,.93.93,0,0,1,3,2a1.14,1.14,0,0,1,.33.07.85.85,0,0,1,.28.16l0,0a1,1,0,0,1,.3.53v0a2.42,2.42,0,0,1,0,.54V32.81Zm2-23.91H8.8V22.58H5.92ZM43.23,28.48H5.92V24.62H43.23ZM13.72,13.7h0a1,1,0,0,0,2,0h0V8.88h2.89v13.7H15.76v-1.7h0s0,0,0-.05a1,1,0,0,0-1-1h0a1,1,0,0,0-1,1s0,0,0,.05h0v1.69H10.86V8.88h2.86V13.7Zm9.83-4.82V22.57H20.68V8.88h2.87Zm2.06,13.7V8.89h2.85V22.58Zm4.91,0V8.89h2.89V22.58H30.52Zm4.91,0V8.89h2.89V22.58H35.43Zm4.94,0V8.88h2.85v13.7ZM43.24,6.82H5.94V5h37.3Zm3.95,26.6H45.25v-.57q0-14.8,0-29.61a1.7,1.7,0,0,1,0-.22,1.29,1.29,0,0,1,.09-.45.46.46,0,0,1,.11-.16.8.8,0,0,1,.2-.15,1.57,1.57,0,0,1,.5-.21l.25,0a.75.75,0,0,1,.52.24.76.76,0,0,1,.16.26,1,1,0,0,1,.08.32c0,.16,0,.32,0,.48V33.42Z"/><path class="cls-2" d="M5.92,24.62v3.86H43.23V24.62H5.92Z"/><path class="cls-2" d="M5.94,5V6.82h37.3V5H5.94Z"/><path class="cls-2" d="M3.9,2.81v0a1,1,0,0,0-.3-.53l0,0a.85.85,0,0,0-.28-.16A1.14,1.14,0,0,0,3,2a.93.93,0,0,0-.33,0,1,1,0,0,0-.29.18A1,1,0,0,0,2,2.8a3.33,3.33,0,0,0,0,.63q0,14.69,0,29.35a1.34,1.34,0,0,1,0,.2.32.32,0,0,0,0,.17.41.41,0,0,0,.05.09c.06.1.15.19.23.19.54,0,1.08,0,1.68,0V3.35A2.42,2.42,0,0,0,3.9,2.81Z"/><path class="cls-2" d="M47.18,2.85a1,1,0,0,0-.08-.32.76.76,0,0,0-.16-.26A.75.75,0,0,0,46.42,2l-.25,0a1.57,1.57,0,0,0-.5.21.8.8,0,0,0-.2.15.46.46,0,0,0-.11.16,1.29,1.29,0,0,0-.09.45,1.7,1.7,0,0,0,0,.22q0,14.81,0,29.61v.57h1.94V3.33C47.19,3.17,47.19,3,47.18,2.85Z"/><rect class="cls-2" x="5.92" y="8.9" width="2.87" height="13.68"/><path class="cls-2" d="M20.68,8.88h0V22.57h2.87V8.88H20.68Z"/><path class="cls-2" d="M33.41,8.89H30.52V22.58h2.89Z"/><path class="cls-2" d="M38.32,22.58h0V8.89H35.43V22.58h2.89Z"/><path class="cls-2" d="M28.46,8.89H25.61V22.58h2.85V8.89Z"/><rect class="cls-2" x="40.37" y="8.88" width="2.85" height="13.7"/><path d="M14.74,17.73a1,1,0,1,0,0-2h0a1,1,0,0,0,0,2Z"/></g></g></svg>