<svg xmlns="http://www.w3.org/2000/svg" viewBox="0 0 48.3 35.47"><title>Asset 3</title><g id="Layer_2" data-name="Layer 2"><g id="Layer_1-2" data-name="Layer 1"><path d="M42.07,16.61V4.72A4.72,4.72,0,0,0,37.36,0H10.94A4.72,4.72,0,0,0,6.23,4.72V16.61A6.62,6.62,0,0,0,0,23.21V34.53a.94.94,0,0,0,.94.94h9.54a.94.94,0,0,0,.95-.94v-1a2.83,2.83,0,0,1,2.83-2.83h20a2.83,2.83,0,0,1,2.83,2.83v1a.94.94,0,0,0,.94.94h9.33a.94.94,0,0,0,.94-.94V23.21a6.62,6.62,0,0,0-6.23-6.6ZM8.11,4.72a2.83,2.83,0,0,1,2.83-2.83H37.36a2.83,2.83,0,0,1,2.83,2.83V16.6H37.36V13.77A3.78,3.78,0,0,0,33.58,10H30.75A3.77,3.77,0,0,0,27,13.77V16.6H21.32V13.77A3.77,3.77,0,0,0,17.55,10H14.72a3.78,3.78,0,0,0-3.78,3.77V16.6H8.11Zm27.36,9.05V16.6h-6.6V13.77a1.88,1.88,0,0,1,1.88-1.88h2.83a1.89,1.89,0,0,1,1.89,1.88Zm-16,0V16.6h-6.6V13.77a1.89,1.89,0,0,1,1.89-1.88h2.83a1.88,1.88,0,0,1,1.88,1.88ZM6.6,18.49H41.7a4.72,4.72,0,0,1,4.64,3.91,9,9,0,0,0-3.23,1,6.42,6.42,0,0,1-3.39.85,6.78,6.78,0,0,1-3.46-.85,8.55,8.55,0,0,0-4.28-1,8.55,8.55,0,0,0-4.28,1,6.74,6.74,0,0,1-3.45.85,6.78,6.78,0,0,1-3.46-.85,8.55,8.55,0,0,0-4.28-1,8.55,8.55,0,0,0-4.28,1,6.74,6.74,0,0,1-3.45.85,7,7,0,0,1-3.52-.86A9.54,9.54,0,0,0,2,22.4,4.73,4.73,0,0,1,6.6,18.49ZM46.41,33.58H39a4.71,4.71,0,0,0-4.71-4.71h-20a4.72,4.72,0,0,0-4.72,4.71H1.89V24.29a8,8,0,0,1,2.56.81,9,9,0,0,0,4.33,1,8.55,8.55,0,0,0,4.28-1,6.75,6.75,0,0,1,3.45-.84,6.79,6.79,0,0,1,3.46.84,8.48,8.48,0,0,0,4.28,1,8.55,8.55,0,0,0,4.28-1A6.75,6.75,0,0,1,32,24.25a6.79,6.79,0,0,1,3.46.84,8.52,8.52,0,0,0,4.28,1,8.31,8.31,0,0,0,4.24-1,6.86,6.86,0,0,1,2.45-.8Z"/><path d="M29.81,6.32H22.26a.95.95,0,0,1,0-1.89h7.55a.95.95,0,0,1,0,1.89Z"/><path d="M18.49,6.32a.95.95,0,0,1,0-1.89h0a.95.95,0,0,1,0,1.89Z"/></g></g></svg>