<svg xmlns="http://www.w3.org/2000/svg" viewBox="0 0 44.17 35.54"><title>Asset 4</title><g id="Layer_2" data-name="Layer 2"><g id="Layer_1-2" data-name="Layer 1"><path d="M41.58,15.7H38.86a0,0,0,0,1,0,0v-.95a.9.9,0,0,0-.9-.91H28.25a.9.9,0,0,0-.9.91v.95a0,0,0,0,1,0,0H6.42a0,0,0,0,1,0,0V4.5A2.72,2.72,0,0,1,8.72,1.74a2.58,2.58,0,0,1,2.71,1.78s0,0,0,0a4.33,4.33,0,0,0-3.3,4.18.89.89,0,0,0,.9.88h6.82a.91.91,0,0,0,.91-.88,4.32,4.32,0,0,0-3.5-4.22,0,0,0,0,1,0,0A4.32,4.32,0,0,0,8.46,0a4.46,4.46,0,0,0-3.8,4.51V15.66a0,0,0,0,1,0,0h-2A2.63,2.63,0,0,0,0,18.33V20A12.12,12.12,0,0,0,12.12,32.09h.44a0,0,0,0,1,0,0v.78a2.62,2.62,0,0,0,2.62,2.63H16a1.76,1.76,0,0,0,1.76-1.76V32.13a0,0,0,0,1,0,0h8.55a0,0,0,0,1,0,0v1.65a1.76,1.76,0,0,0,1.76,1.76H29a2.62,2.62,0,0,0,2.62-2.63v-.78a0,0,0,0,1,.05,0h.14a12.48,12.48,0,0,0,8-2.77A12,12,0,0,0,44.17,20V18.29a2.59,2.59,0,0,0-2.59-2.59ZM12.42,5.18A2.58,2.58,0,0,1,14.86,6.9H10a2.6,2.6,0,0,1,2.44-1.72ZM29.11,15.53h8a0,0,0,0,1,0,0v5.18a0,0,0,0,1,0,0h-8a0,0,0,0,1,0,0V15.57A0,0,0,0,1,29.11,15.53Zm0,7h8a0,0,0,0,1,0,0v.78a.9.9,0,0,1-.91.9H30a.9.9,0,0,1-.91-.9v-.78A0,0,0,0,1,29.11,22.52ZM1.73,18.33a.9.9,0,0,1,.9-.9H27.31a0,0,0,0,1,0,0v1.64a0,0,0,0,1,0,0H1.77a0,0,0,0,1,0,0ZM16.05,33.82h-.83a.91.91,0,0,1-.9-.91v-.78a0,0,0,0,1,0,0H16a0,0,0,0,1,0,0v1.69Zm13.8-.91a.9.9,0,0,1-.9.91h-.79a0,0,0,0,1,0,0V32.13a0,0,0,0,1,0,0h1.65a0,0,0,0,1,0,0Zm9.56-5.58a10.25,10.25,0,0,1-7.32,3h-20A10.34,10.34,0,0,1,3.6,26a0,0,0,0,1,0-.07H9.06a.86.86,0,0,0,0-1.72H2.62s0,0,0,0a10.46,10.46,0,0,1-.82-3.21,0,0,0,0,1,0,0H27.31a0,0,0,0,1,0,0v2.42A2.63,2.63,0,0,0,30,26h6.21a2.63,2.63,0,0,0,2.63-2.63V20.92a0,0,0,0,1,0,0h3.5a0,0,0,0,1,0,0,10.29,10.29,0,0,1-3,6.41Zm3-8.18H38.86a0,0,0,0,1,0,0V17.47a0,0,0,0,1,0,0h2.68a.9.9,0,0,1,.9.9v.78A0,0,0,0,1,42.4,19.15Z"/><path d="M12.51,25.88a.86.86,0,0,1,0-1.72h0a.86.86,0,1,1,0,1.72Z"/></g></g></svg>