<svg xmlns="http://www.w3.org/2000/svg" viewBox="0 0 42.36 35.32"><title>Asset 5</title><g id="Layer_2" data-name="Layer 2"><g id="Layer_1-2" data-name="Layer 1"><path d="M41.53,0H.83A.83.83,0,0,0,0,.83V5A2.83,2.83,0,0,0,1.24,7.3V34.5a.83.83,0,0,0,.83.82H40.29a.83.83,0,0,0,.83-.82V7.3A2.83,2.83,0,0,0,42.36,5V.83A.83.83,0,0,0,41.53,0ZM1.65,1.65H40.7V5a1.17,1.17,0,0,1-1.16,1.17h-6a.83.83,0,1,0,0,1.65h1.52v2.81H7.28V7.78H24a.83.83,0,1,0,0-1.65H2.82A1.18,1.18,0,0,1,1.65,5Zm4,28.65v3.37H2.9V7.78H5.63V23.7a.83.83,0,1,0,1.65,0V12.25h27.8V29.47H31.56V27.61a2.23,2.23,0,0,0-2.23-2.23H25.51a6.37,6.37,0,0,0,1.23-3.6c0-4.06-4.91-7.18-5.12-7.31a.82.82,0,0,0-.88,0c-.21.13-5.12,3.25-5.12,7.31a6.37,6.37,0,0,0,1.23,3.6H13a2.23,2.23,0,0,0-2.23,2.23v1.86H6.45a.83.83,0,0,0-.82.83Zm14.1-5.08c0-.82.85-1.68,1.45-2.16a3.35,3.35,0,0,1,1.45,2.16c0,.05,0,.11,0,.16H19.74a.86.86,0,0,1,0-.16Zm4.44-.81a6.09,6.09,0,0,0-2.55-3.07.82.82,0,0,0-.88,0,6.09,6.09,0,0,0-2.55,3.07,4.91,4.91,0,0,1-.92-2.63c0-2.54,2.81-4.82,3.91-5.61,1.4,1,3.91,3.27,3.91,5.61a4.91,4.91,0,0,1-.92,2.63ZM29.33,27a.58.58,0,0,1,.58.57v1.86H12.45V27.61A.58.58,0,0,1,13,27Zm-22,4.09h27.8v2.54H7.28Zm32.18,2.54H36.73V7.78h2.73Z"/><path d="M28.81,7.78l-.17,0-.15,0-.14-.08-.13-.1A1.19,1.19,0,0,1,28,7.27a.75.75,0,0,1,0-.16A.41.41,0,0,1,28,7a.44.44,0,0,1,0-.16.83.83,0,0,1,0-.15,1.09,1.09,0,0,1,.08-.15l.1-.12a.69.69,0,0,1,.13-.11l.14-.07.15-.05a.91.91,0,0,1,.33,0l.15.05.15.07.12.11.1.12a1.09,1.09,0,0,1,.08.15.88.88,0,0,1,.05.15.86.86,0,0,1,0,.16.81.81,0,0,1,0,.16.75.75,0,0,1-.05.16,1.19,1.19,0,0,1-.18.27l-.12.1-.15.08-.15,0-.16,0Z"/></g></g></svg>