<svg xmlns="http://www.w3.org/2000/svg" viewBox="0 0 45.21 34.61"><title>Asset 6</title><g id="Layer_2" data-name="Layer 2"><g id="Layer_1-2" data-name="Layer 1"><path d="M39,25.73h-23a.88.88,0,0,1-.88-.88,9.43,9.43,0,0,1,3-6.89,10.38,10.38,0,0,1,7.19-2.83H36.27a3.59,3.59,0,0,1,3.64,3.53v6.19a.88.88,0,0,1-.88.88ZM17,24H38.15v-5.3a1.83,1.83,0,0,0-1.88-1.77H25.4a8.65,8.65,0,0,0-6,2.36A7.64,7.64,0,0,0,17,24Z"/><path d="M44.18,8.11a3.54,3.54,0,0,0-1.62-.93V.88a.88.88,0,0,0-1.76,0v6.3a3.53,3.53,0,0,0-2.65,3.42v.16H18.54a18.47,18.47,0,0,0-12.4,4.79h0l0,0c-.22.19-.44.41-.66.63A18.73,18.73,0,0,0,1.12,23,18.43,18.43,0,0,0,0,29.31v.05a5.3,5.3,0,0,0,5.3,5.25H39.91a.88.88,0,0,0,.89-.88A4.58,4.58,0,0,1,42,31.65a3.65,3.65,0,0,1,2.35-1.45.89.89,0,0,0,.88-.89V10.6a3.51,3.51,0,0,0-1-2.49ZM39.91,10.6a1.77,1.77,0,1,1,3.53,0v2a5.77,5.77,0,0,0-3.53-1.8ZM6.7,17.45l.19-.19A3.53,3.53,0,1,1,3,23.07,17.2,17.2,0,0,1,6.7,17.45Zm33.95,13a7.83,7.83,0,0,0-1.45,2.37H5.3A3.53,3.53,0,0,1,1.88,30.2h39l-.27.28ZM1.79,28.43a16.71,16.71,0,0,1,.58-3.59A5.31,5.31,0,0,0,8.3,16a16.65,16.65,0,0,1,10.24-3.52H39a4.42,4.42,0,0,1,4.41,4.42V28.43Z"/><path d="M32.85,22.25H25.78a.89.89,0,0,1,0-1.77h7.07a.89.89,0,0,1,0,1.77Z"/><path d="M22.25,22.25a.89.89,0,0,1,0-1.77h0a.89.89,0,1,1,0,1.77Z"/></g></g></svg>