<svg xmlns="http://www.w3.org/2000/svg" viewBox="0 0 25.82 35.65"><defs><style>.cls-1{stroke:#1d1d1b;stroke-miterlimit:10;stroke-width:0.2px;}</style></defs><title>Asset 7</title><g id="Layer_2" data-name="Layer 2"><g id="Layer_1-2" data-name="Layer 1"><path class="cls-1" d="M23.64.1H2.18A2.08,2.08,0,0,0,.1,2.18V33.47a2.08,2.08,0,0,0,2.08,2.08H23.64a2.09,2.09,0,0,0,2.08-2.08V2.18A2.08,2.08,0,0,0,23.64.1ZM14,1.48h6.23v2a.69.69,0,0,1-.69.69H14.7A.69.69,0,0,1,14,3.45Zm10.32,32a.69.69,0,0,1-.69.69H2.18a.7.7,0,0,1-.7-.69V8.26H14a.69.69,0,1,0,0-1.38H1.48V2.18a.71.71,0,0,1,.7-.7H12.63v2A2.07,2.07,0,0,0,14.7,5.52h4.85a2.08,2.08,0,0,0,2.08-2.07v-2h2a.7.7,0,0,1,.69.7v4.7H19.48a.69.69,0,1,0,0,1.38h4.85Z"/><path class="cls-1" d="M9.1,4.19H5A.69.69,0,1,1,5,2.81H9.1a.69.69,0,0,1,0,1.38Z"/><path class="cls-1" d="M12.93,28.85a7.61,7.61,0,1,1,7.62-7.62,7.64,7.64,0,0,1-7.62,7.62Zm0-13.85a6.24,6.24,0,1,0,6.23,6.23,6.17,6.17,0,0,0-1.24-3.73h0a6.18,6.18,0,0,0-5-2.5Zm0,11.08a4.85,4.85,0,1,1,3.23-8.46.68.68,0,0,1,.23.52.7.7,0,0,1-.23.52,3.46,3.46,0,0,0,0,5.15.7.7,0,0,1,0,1,4.85,4.85,0,0,1-3.23,1.23Zm0-8.31a3.47,3.47,0,1,0,1.73,6.46,4.83,4.83,0,0,1,0-6,3.38,3.38,0,0,0-1.73-.47Z"/><path class="cls-1" d="M16.72,8.26a.69.69,0,1,1,0-1.38h0a.69.69,0,1,1,0,1.38Z"/></g></g></svg>