<svg xmlns="http://www.w3.org/2000/svg" xmlns:xlink="http://www.w3.org/1999/xlink" viewBox="0 0 43.07 35.33"><defs><style>.cls-1{fill:none;}.cls-2{clip-path:url(#clip-path);}</style><clipPath id="clip-path"><rect class="cls-1" width="43.07" height="35.33"/></clipPath></defs><title>Asset 8</title><g id="Layer_2" data-name="Layer 2"><g id="Layer_1-2" data-name="Layer 1"><g class="cls-2"><path d="M21.54,21.87A5.89,5.89,0,1,1,27.43,16a5.89,5.89,0,0,1-5.89,5.89Zm0-10.09a4.21,4.21,0,1,0,4.2,4.2,4.21,4.21,0,0,0-4.2-4.2Z"/><path d="M40.55,0h-38A2.52,2.52,0,0,0,0,2.52V29.45A2.52,2.52,0,0,0,2.52,32H3.87v1.68a1.68,1.68,0,0,0,1.68,1.68H7.24a1.68,1.68,0,0,0,1.68-1.68V32H34.16v1.68a1.68,1.68,0,0,0,1.68,1.68h1.68a1.68,1.68,0,0,0,1.68-1.68V32h1.35a2.52,2.52,0,0,0,2.52-2.52V2.52A2.52,2.52,0,0,0,40.55,0ZM1.68,10.94H7.57c1.21,0,.94,1.54-.1,1.68a13.82,13.82,0,0,1-1.82,0h-4ZM5.89,22.71c1.32,0,2.78.2,3.68-1a2.54,2.54,0,0,0-2-4H5.89V14.3c1.32,0,2.78.19,3.68-1a2.55,2.55,0,0,0-2-4.06H5.89V6.73a.85.85,0,0,1,.84-.84H36.34a.85.85,0,0,1,.85.84V25.24a.85.85,0,0,1-.85.84H6.73a.85.85,0,0,1-.84-.84ZM1.68,14.3H4.21v3.37H1.68Zm5.89,5.05c1.21,0,.94,1.55-.1,1.68a13.82,13.82,0,0,1-1.82,0h-4V19.35Zm-.33,14.3H5.55V32H7.24Zm30.28,0H35.84V32h1.68v1.68Zm3.87-4.2a.85.85,0,0,1-.84.84h-38a.85.85,0,0,1-.84-.84V22.71H4.21v2.53a2.52,2.52,0,0,0,2.52,2.52H36.34a2.52,2.52,0,0,0,2.53-2.52V6.73a2.52,2.52,0,0,0-2.53-2.52H6.73A2.52,2.52,0,0,0,4.21,6.73V9.25H1.68V2.52a.85.85,0,0,1,.84-.84h38a.85.85,0,0,1,.84.84Z"/></g><path d="M21.54,18.51A2.53,2.53,0,1,1,24.06,16a2.53,2.53,0,0,1-2.52,2.53Zm0-3.37a.85.85,0,0,0,0,1.69.85.85,0,0,0,0-1.69Z"/><path d="M33.57,22.88a.83.83,0,0,1-.84-.84V13.63a.84.84,0,0,1,1.68,0V22a.84.84,0,0,1-.84.84Z"/><path d="M33.57,11.11a.85.85,0,0,1,0-1.69h0a.85.85,0,0,1,0,1.69Z"/></g></g></svg>