<svg xmlns="http://www.w3.org/2000/svg" xmlns:xlink="http://www.w3.org/1999/xlink" viewBox="0 0 43 35.27"><defs><style>.cls-1{fill:none;}.cls-2{clip-path:url(#clip-path);}</style><clipPath id="clip-path"><rect class="cls-1" width="43" height="35.27"/></clipPath></defs><title>Asset 9</title><g id="Layer_2" data-name="Layer 2"><g id="Layer_1-2" data-name="Layer 1"><g class="cls-2"><path d="M40.48,0h-38A2.52,2.52,0,0,0,0,2.52V24.35a2.52,2.52,0,0,0,2.52,2.52H19v3.36h-2.1a3.37,3.37,0,0,0-3.36,3.36v.84a.85.85,0,0,0,.84.84H28.64a.85.85,0,0,0,.84-.84v-.84a3.37,3.37,0,0,0-3.36-3.36H24V26.87H40.48A2.52,2.52,0,0,0,43,24.35V2.52A2.52,2.52,0,0,0,40.48,0ZM26.12,31.91a1.68,1.68,0,0,1,1.68,1.68H15.2a1.68,1.68,0,0,1,1.68-1.68Zm-3.78-1.68H20.66V26.87h1.68Zm19-5.88a.84.84,0,0,1-.84.84h-38a.84.84,0,0,1-.84-.84V2.52a.85.85,0,0,1,.84-.84h38a.85.85,0,0,1,.84.84Z"/></g><path d="M18.35,18.39a.88.88,0,0,1-.42-.11.84.84,0,0,1-.42-.73V10.28a.84.84,0,0,1,1.26-.73l6.3,3.64a.83.83,0,0,1,.42.72.84.84,0,0,1-.42.73l-6.3,3.64a.91.91,0,0,1-.42.11Zm.84-6.66V16.1L23,13.91Z"/><path d="M31.17,13.34a.84.84,0,1,1,0-1.68h0a.84.84,0,1,1,0,1.68Z"/><path d="M38.29,4.28H4.7a.85.85,0,0,0-.84.84V21.75a.85.85,0,0,0,.84.84H38.29a.84.84,0,0,0,.84-.84V5.12a.84.84,0,0,0-.84-.84Zm-.84,16.63h-31l3.57-3.57a.86.86,0,0,0,0-1.19.84.84,0,0,0-1.19,0L5.54,19.47V6h31L33,9.53a.84.84,0,0,0,0,1.19.85.85,0,0,0,.59.25.87.87,0,0,0,.6-.25L37.45,7.4Z"/><path d="M11.83,15.21a.84.84,0,0,1,0-1.68h0a.84.84,0,0,1,0,1.68Z"/></g></g></svg>