<svg xmlns="http://www.w3.org/2000/svg" xmlns:xlink="http://www.w3.org/1999/xlink" viewBox="0 0 43.25 35.48"><defs><style>.cls-1{fill:none;}.cls-2{clip-path:url(#clip-path);}</style><clipPath id="clip-path"><rect class="cls-1" width="43.25" height="35.48"/></clipPath></defs><title>Asset 10</title><g id="Layer_2" data-name="Layer 2"><g id="Layer_1-2" data-name="Layer 1"><g class="cls-2"><path d="M3.58,13.47a.86.86,0,0,1-.6-.25L.46,10.7A1.56,1.56,0,0,1,0,9.56,1.58,1.58,0,0,1,.49,8.44a30.68,30.68,0,0,1,42.27,0,1.55,1.55,0,0,1,.49,1.12,1.56,1.56,0,0,1-.46,1.14l-2,2a1.57,1.57,0,0,1-2.2,0,24.69,24.69,0,0,0-34.4.48.84.84,0,0,1-.6.25ZM1.74,9.59l1.85,1.85a26.37,26.37,0,0,1,36.07,0l1.86-1.85a29,29,0,0,0-39.78,0Z"/></g><path d="M33.56,19.27a1.55,1.55,0,0,1-1.06-.42,16,16,0,0,0-8.15-4,.85.85,0,0,1-.69-1,.83.83,0,0,1,1-.69,17.63,17.63,0,0,1,8.93,4.36l1.86-1.86a20.39,20.39,0,0,0-27.58,0l1.85,1.86a17.81,17.81,0,0,1,7.76-4.12.84.84,0,1,1,.39,1.64,16.12,16.12,0,0,0-7.08,3.79,1.58,1.58,0,0,1-2.19,0l-2-2a1.58,1.58,0,0,1,.05-2.28,22.07,22.07,0,0,1,30,0,1.58,1.58,0,0,1,.5,1.13,1.55,1.55,0,0,1-.46,1.15l-2,2a1.57,1.57,0,0,1-1.12.46Z"/><path d="M27.46,25.38a1.62,1.62,0,0,1-1-.38,7.41,7.41,0,0,0-9.61,0,1.57,1.57,0,0,1-2.14-.09l-2-2a1.6,1.6,0,0,1-.47-1.17,1.63,1.63,0,0,1,.53-1.13,13.45,13.45,0,0,1,17.79,0,1.58,1.58,0,0,1,.07,2.3l-2,2a1.57,1.57,0,0,1-1.11.47Zm-5.83-3.84a9.11,9.11,0,0,1,5.82,2.11l1.86-1.86a11.76,11.76,0,0,0-15.37,0l1.86,1.86a9.11,9.11,0,0,1,5.83-2.11Z"/><path d="M21.63,35.48a4.82,4.82,0,0,1-3.4-8.22,4.82,4.82,0,0,1,8.22,3.41,4.82,4.82,0,0,1-4.82,4.81Zm0-7.94a3.14,3.14,0,1,0,2.21.92,3.12,3.12,0,0,0-2.21-.92Z"/><path d="M21.11,14.61a.85.85,0,0,1,0-1.69h0a.85.85,0,1,1,0,1.69Z"/></g></g></svg>